<?xml version="1.0" encoding="utf-8"?>
<!-- Generator: Adobe Illustrator 22.0.1, SVG Export Plug-In . SVG Version: 6.00 Build 0)  -->
<svg version="1.1" id="Layer_1" xmlns="http://www.w3.org/2000/svg" xmlns:xlink="http://www.w3.org/1999/xlink" x="0px" y="0px"
	 viewBox="0 0 865 865" style="enable-background:new 0 0 865 865;" xml:space="preserve">
<title>logo</title>
<path d="M432.5,792.9V396.5H73.9C89.6,238.4,207.4,110.4,360.4,79.3v245.1h72.1V0C193.6,0,0,193.6,0,432.5c0,12.1,0.5,24.2,1.5,36
	h358.9v317.2C232.1,759.4,128.1,665.6,88.7,540.6h-75C61.7,727.2,231,865,432.6,865L432.5,792.9z"/>
<path d="M504.6,6v853C709.1,824.7,865,646.8,865,432.5S709.1,40.4,504.6,6z M576.7,762.9V102.1C704,157.7,792.9,284.7,792.9,432.5
	S704,707.3,576.7,762.9L576.7,762.9z"/>
</svg>
